<?xml version="1.0" encoding="UTF-8" standalone="no"?>
<!-- Created with Inkscape (http://www.inkscape.org/) -->

<svg
   width="297mm"
   height="210mm"
   viewBox="0 0 297 210"
   version="1.1"
   id="svg5"
   xml:space="preserve"
   inkscape:version="1.2.2 (732a01da63, 2022-12-09)"
   sodipodi:docname="art.svg"
   inkscape:export-filename="..\sprites\sprites.png"
   inkscape:export-xdpi="96"
   inkscape:export-ydpi="96"
   xmlns:inkscape="http://www.inkscape.org/namespaces/inkscape"
   xmlns:sodipodi="http://sodipodi.sourceforge.net/DTD/sodipodi-0.dtd"
   xmlns="http://www.w3.org/2000/svg"
   xmlns:svg="http://www.w3.org/2000/svg"><sodipodi:namedview
     id="namedview7"
     pagecolor="#ffffff"
     bordercolor="#000000"
     borderopacity="0.25"
     inkscape:showpageshadow="2"
     inkscape:pageopacity="0.0"
     inkscape:pagecheckerboard="0"
     inkscape:deskcolor="#d1d1d1"
     inkscape:document-units="mm"
     showgrid="false"
     inkscape:zoom="1.0645786"
     inkscape:cx="403.91568"
     inkscape:cy="278.98362"
     inkscape:window-width="1920"
     inkscape:window-height="1025"
     inkscape:window-x="1352"
     inkscape:window-y="-8"
     inkscape:window-maximized="1"
     inkscape:current-layer="layer1" /><defs
     id="defs2" /><g
     inkscape:label="Capa 1"
     inkscape:groupmode="layer"
     id="layer1"><text
       xml:space="preserve"
       style="font-weight:bold;font-size:24.9728px;font-family:Righteous;-inkscape-font-specification:'Righteous Bold';text-align:center;text-anchor:middle;fill:#ff0066;stroke:#002255;stroke-width:1.5;stroke-dasharray:none"
       x="81.7304"
       y="50.192562"
       id="text1337"
       inkscape:export-filename="..\sprites\sprites.png"
       inkscape:export-xdpi="96"
       inkscape:export-ydpi="96"><tspan
         sodipodi:role="line"
         id="tspan1335"
         style="fill:#ff0066;stroke:#002255;stroke-width:1.5;stroke-dasharray:none"
         x="81.7304"
         y="50.192562">IKAR</tspan></text><text
       xml:space="preserve"
       style="font-weight:bold;font-size:10.1083px;font-family:Righteous;-inkscape-font-specification:'Righteous Bold';text-align:center;text-anchor:middle;fill:#d40055;stroke:#22002b;stroke-width:0.8;stroke-dasharray:none"
       x="81.897484"
       y="61.577076"
       id="text1447"><tspan
         sodipodi:role="line"
         id="tspan1445"
         style="font-style:normal;font-variant:normal;font-weight:bold;font-stretch:normal;font-family:'Arial Rounded MT Bold';-inkscape-font-specification:'Arial Rounded MT Bold,  Bold';fill:#d40055;stroke:#22002b;stroke-width:0.8;stroke-dasharray:none"
         x="81.897484"
         y="61.577076">SIMULATOR</tspan></text><path
       style="fill:#0055d4;stroke:#002255;stroke-width:0.8;stroke-dasharray:none"
       d="m 21.047535,59.711683 v -1.98678 h 2.645833 2.645833 v -4.75319 c 0,-4.44964 -0.03311,-4.77091 -0.518446,-5.03065 -0.419089,-0.22429 -0.786705,-0.10636 -1.918229,0.61536 -2.340113,1.49259 -3.576696,2.02473 -4.705032,2.02473 -1.441487,0 -2.652551,-0.54077 -3.520126,-1.57182 -0.632096,-0.7512 -0.715135,-1.07068 -0.714261,-2.74796 0.0017,-3.18289 0.774998,-3.92122 5.498883,-5.24995 l 2.192579,-0.61672 -0.141175,-0.92604 c -0.07765,-0.50933 -0.512083,-3.84172 -0.965416,-7.40533 -0.735572,-5.78227 -0.892212,-6.56006 -1.456092,-7.2302 -0.832977,-0.98993 -0.797127,-1.64407 0.141546,-2.58274 0.822096,-0.8221 1.568054,-0.96797 2.374492,-0.46435 0.39992,0.24976 1.181968,0.11803 4.075736,-0.68652 3.330088,-0.92586 3.603625,-1.05054 3.90593,-1.78037 0.48559,-1.17232 1.77438,-2.01715 3.486814,-2.28569 0.826635,-0.12963 1.440968,-0.13536 1.365186,-0.0127 -0.07578,0.12262 0.0068,0.22295 0.183585,0.22295 0.176753,0 0.700348,0.28906 1.163544,0.64235 0.834673,0.63664 0.897342,0.6425 7.036432,0.65806 3.406842,0.009 6.275534,0.0172 6.374864,0.0191 0.0993,0.002 0.25088,0.22481 0.33677,0.49543 0.12415,0.39114 0.35836,0.47073 1.14231,0.38814 0.54238,-0.0571 1.13675,-0.30372 1.32081,-0.54797 0.24749,-0.32841 1.10903,-0.52898 3.30729,-0.76995 1.63495,-0.17921 3.16819,-0.26914 3.4072,-0.19983 0.23901,0.0693 0.56846,0.44947 0.73211,0.84482 0.28143,0.67986 0.3869,0.7168 1.94669,0.68176 1.24081,-0.0279 1.66912,-0.13632 1.72986,-0.438 0.0886,-0.43995 0.56169,-0.59728 2.59187,-0.86194 1.12455,-0.1466 1.37819,-0.10164 1.52064,0.26956 0.15615,0.40694 0.2295,0.39945 0.8473,-0.0865 0.63479,-0.49933 0.7527,-0.50827 1.91895,-0.14559 0.68343,0.21253 1.74861,0.52727 2.36707,0.69941 0.78833,0.21942 1.12448,0.45478 1.12448,0.78728 0,0.421 -0.26858,0.47429 -2.39055,0.47429 -3.23808,0 -4.49438,0.78193 -3.17488,1.97606 0.38724,0.35045 1.13022,0.50538 2.91041,0.60688 2.02174,0.11527 2.39044,0.20579 2.39044,0.58688 0,0.46269 -0.58124,0.69126 -3.38621,1.33158 -1.24337,0.28383 -1.45964,0.26769 -1.91326,-0.14284 -0.40138,-0.36324 -0.59241,-0.39564 -0.88773,-0.15054 -0.49974,0.41474 -3.58473,-0.2735 -3.92123,-0.87481 -0.17793,-0.31793 -0.65225,-0.42279 -1.9124,-0.42279 -1.45186,0 -1.69423,0.0705 -1.81382,0.52783 -0.0759,0.29031 -0.35041,0.60933 -0.60999,0.70894 -0.74189,0.28469 -6.24959,-0.41235 -6.73593,-0.85248 -0.56777,-0.51382 -2.26435,-0.50516 -2.46303,0.0126 -0.1294,0.33722 -1.08815,0.39688 -6.378306,0.39688 -5.036357,0 -6.226011,0.0679 -6.226011,0.35556 0,0.19557 0.78076,5.34502 1.735022,11.44323 0.954262,6.09822 1.803976,11.76941 1.888254,12.60265 0.280839,2.77664 -0.905546,5.1737 -3.119702,6.30328 -0.991802,0.50598 -1.032741,0.57909 -1.032741,1.8444 v 1.31754 h 5.286627 5.286626 l 0.153813,0.61285 c 0.0846,0.33707 0.116634,1.20027 0.07119,1.91823 l -0.08263,1.30538 -13.559895,0.0685 -13.559896,0.0685 z m 15.877777,-8.24821 c 1.309596,-0.7736 1.754656,-2.79005 0.888685,-4.02639 -1.574523,-2.24795 -5.124796,-1.13284 -5.124796,1.60965 0,1.29219 0.335439,1.94131 1.263423,2.44491 0.959667,0.52079 2.061037,0.51035 2.972688,-0.0282 z m -11.891633,-7.50621 c 0.617978,-0.33073 0.690992,-1.62924 0.118333,-2.1045 -1.112945,-0.92367 -2.560035,0.77839 -1.581287,1.85989 0.53582,0.59207 0.747562,0.62748 1.462954,0.24461 z m 8.785305,-1.05166 c 0.112058,-0.0917 -0.291127,-4.2065 -0.895966,-9.14402 -0.873781,-7.13298 -1.194711,-9.0782 -1.562142,-9.46845 -0.436312,-0.46341 -0.654734,-0.47265 -3.866534,-0.16344 -1.872254,0.18025 -3.612458,0.43523 -3.86712,0.56661 -0.611234,0.31536 -0.594814,0.63398 0.311591,6.04612 0.426037,2.54385 0.914283,5.59583 1.084991,6.78215 0.278204,1.93336 0.414917,2.26907 1.318782,3.23838 0.797193,0.85491 1.52588,1.2683 3.479071,1.97372 2.44014,0.88129 3.093053,0.90888 3.997327,0.16893 z M 22.466132,23.990533 c 0.249925,-0.65129 -0.109627,-1.19062 -0.79375,-1.19062 -0.3528,0 -0.709988,0.17859 -0.79375,0.39687 -0.249926,0.6513 0.109627,1.19063 0.79375,1.19063 0.3528,0 0.709987,-0.1786 0.79375,-0.39688 z m 13.133486,-1.45521 c 1.088752,-1.08875 0.188134,-3.175 -1.370624,-3.175 -0.704137,0 -1.804376,1.17224 -1.804376,1.92246 0,1.52363 2.082405,2.34514 3.175,1.25254 z"
       id="path1563" /><text
       xml:space="preserve"
       style="font-style:normal;font-variant:normal;font-weight:bold;font-stretch:normal;font-size:13.7641px;font-family:'Arial Rounded MT Bold';-inkscape-font-specification:'Arial Rounded MT Bold,  Bold';text-align:center;text-anchor:middle;fill:#e2dbe3;stroke:#002255;stroke-width:3.46813;stroke-dasharray:none"
       x="161.86281"
       y="42.843773"
       id="text1638"><tspan
         sodipodi:role="line"
         id="tspan1636"
         style="fill:#e2dbe3;stroke-width:3.46813"
         x="161.86281"
         y="42.843773">mikdevio</tspan></text><text
       xml:space="preserve"
       style="font-style:normal;font-variant:normal;font-weight:bold;font-stretch:normal;font-size:13.7641px;font-family:'Arial Rounded MT Bold';-inkscape-font-specification:'Arial Rounded MT Bold,  Bold';text-align:center;text-anchor:middle;fill:#ff0066;stroke:none;stroke-width:3.46813;stroke-dasharray:none"
       x="161.86281"
       y="42.843773"
       id="text1692"><tspan
         sodipodi:role="line"
         id="tspan1690"
         style="fill:#ff0066;stroke:none;stroke-width:3.46813"
         x="161.86281"
         y="42.843773">mikdevio</tspan></text></g></svg>
